<svg width="24" height="25" viewBox="0 0 24 25" fill="none" xmlns="http://www.w3.org/2000/svg">
<mask id="mask0_376_6" style="mask-type:alpha" maskUnits="userSpaceOnUse" x="0" y="0" width="24" height="25">
<rect y="0.161621" width="24" height="24" fill="#FFFFFF"/>
</mask>
<g mask="url(#mask0_376_6)">
<path d="M13.25 8.25312V4.57037C13.25 4.30937 13.3369 4.0927 13.5107 3.92037C13.6846 3.74787 13.8999 3.66162 14.1568 3.66162H19.5972C19.8542 3.66162 20.0689 3.74787 20.2413 3.92037C20.4138 4.0927 20.5 4.30937 20.5 4.57037V8.25312C20.5 8.51395 20.4131 8.73054 20.2393 8.90287C20.0654 9.07537 19.8501 9.16162 19.5933 9.16162H14.1528C13.8958 9.16162 13.6811 9.07537 13.5087 8.90287C13.3363 8.73054 13.25 8.51395 13.25 8.25312ZM3.5 11.7616V4.56137C3.5 4.30637 3.58692 4.0927 3.76075 3.92037C3.93458 3.74787 4.14992 3.66162 4.40675 3.66162H9.84725C10.1043 3.66162 10.3189 3.74787 10.4913 3.92037C10.6638 4.09287 10.75 4.30662 10.75 4.56162V11.7619C10.75 12.0169 10.6631 12.2305 10.4893 12.4029C10.3154 12.5754 10.1001 12.6616 9.84325 12.6616H4.40275C4.14575 12.6616 3.93108 12.5754 3.75875 12.4029C3.58625 12.2304 3.5 12.0166 3.5 11.7616ZM13.25 19.7616V12.5614C13.25 12.3064 13.3369 12.0927 13.5107 11.9204C13.6846 11.7479 13.8999 11.6616 14.1568 11.6616H19.5972C19.8542 11.6616 20.0689 11.7479 20.2413 11.9204C20.4138 12.0929 20.5 12.3066 20.5 12.5616V19.7619C20.5 20.0169 20.4131 20.2305 20.2393 20.4029C20.0654 20.5754 19.8501 20.6616 19.5933 20.6616H14.1528C13.8958 20.6616 13.6811 20.5754 13.5087 20.4029C13.3363 20.2304 13.25 20.0166 13.25 19.7616ZM3.5 19.7529V16.0701C3.5 15.8093 3.58692 15.5927 3.76075 15.4204C3.93458 15.2479 4.14992 15.1616 4.40675 15.1616H9.84725C10.1043 15.1616 10.3189 15.2479 10.4913 15.4204C10.6638 15.5927 10.75 15.8093 10.75 16.0701V19.7529C10.75 20.0139 10.6631 20.2305 10.4893 20.4029C10.3154 20.5754 10.1001 20.6616 9.84325 20.6616H4.40275C4.14575 20.6616 3.93108 20.5754 3.75875 20.4029C3.58625 20.2305 3.5 20.0139 3.5 19.7529ZM5 11.1616H9.25V5.16162H5V11.1616ZM14.75 19.1616H19V13.1616H14.75V19.1616ZM14.75 7.66162H19V5.16162H14.75V7.66162ZM5 19.1616H9.25V16.6616H5V19.1616Z" fill="white" />
</g>
</svg>
