<?xml version="1.0" encoding="utf-8"?>
<!-- Svg Vector Icons : http://www.onlinewebfonts.com/icon -->
<!DOCTYPE svg PUBLIC "-//W3C//DTD SVG 1.1//EN" "http://www.w3.org/Graphics/SVG/1.1/DTD/svg11.dtd">
<svg version="1.1" xmlns="http://www.w3.org/2000/svg" xmlns:xlink="http://www.w3.org/1999/xlink" x="0px" y="0px" viewBox="0 0 256 256" enable-background="new 0 0 256 256" xml:space="preserve">
<metadata> Svg Vector Icons : http://www.onlinewebfonts.com/icon </metadata>
<g><g><path fill="#000000" d="M38.2,162.3c0,15.2,12.3,27.5,27.5,27.5s27.5-12.3,27.5-27.5c0-15.2-12.3-27.5-27.5-27.5C50.6,134.8,38.2,147.1,38.2,162.3L38.2,162.3z"/><path fill="#000000" d="M164.5,162.3c0,15.2,12.3,27.5,27.5,27.5c15.2,0,27.6-12.3,27.6-27.5c0-15.2-12.4-27.5-27.6-27.5C176.8,134.8,164.5,147.1,164.5,162.3z"/><path fill="#000000" d="M241.3,124.6l-1.3-25.8l-8-2.1c0,0-3.7-5.2-8-10.2c-5.4-6.1-6.8-8.5-8.5-12.3c-1.7-3.8-9.3-5.1-9.3-5.1s-10.6-1.7-17.4-2.6c-6.8-0.9-58.5,0-58.5,0s-9.8,0.4-14.8,2.6c-5.1,2.1-14.4,5.9-19.9,10.2C90.1,83.5,77.8,94.1,74,96.6c-3.8,2.6-5.9,4.9-10.5,6.1c-4.7,1.3-24.2,5.3-28.9,7.4c-4.7,2.1-13.1,3.8-15.7,8.5c-2.6,4.6-8.9,14.4-8.9,25.8s0,18.2,0,18.2s0.8,3.8,2.1,5.1c1.3,1.3,6.4,1.7,6.4,1.7h14.8c0,0-3.8-38.6,33.5-38.9c34.8-0.3,31.7,38.9,31.7,38.9h61c0,0-5.1-39.4,32.6-39c36.4,0.4,31.8,39,31.8,39h11.4c0,0,4.7-1.3,7.2-4.2c2.6-3,3.4-9.8,3.4-9.8v-25L241.3,124.6z M149.1,110.6H75.8v-3.8c0,0,3.8-5.1,9.3-9.3c5.5-4.2,14.4-10.6,20.3-14.8c5.9-4.2,17.4-8.5,17.4-8.5h26.3V110.6z M160.6,110.6V74.2h36.3c0,0,13.7,9.8,18.3,14.4c4.7,4.7,9.2,22,9.2,22H160.6z"/></g></g>
</svg>